<svg width="12" height="11" viewBox="0 0 12 11" fill="none" xmlns="http://www.w3.org/2000/svg">
<path d="M11.824 0.219917C11.776 0.152024 11.7124 0.0966406 11.6385 0.0584183C11.5646 0.0201959 11.4827 0.000244141 11.3995 0.000244141C11.3164 0.000244141 11.2344 0.0201959 11.1605 0.0584183C11.0867 0.0966406 11.0231 0.152024 10.975 0.219917L7.47502 4.59291L3.79002 9.19292L1.02402 5.74391C0.975985 5.67602 0.912367 5.62064 0.838504 5.58242C0.76464 5.5442 0.682687 5.52425 0.599519 5.52425C0.516352 5.52425 0.434399 5.5442 0.360535 5.58242C0.286672 5.62064 0.223054 5.67602 0.17502 5.74391C0.0609875 5.8969 -0.000610352 6.08261 -0.000610352 6.27341C-0.000610352 6.46422 0.0609875 6.64993 0.17502 6.80292L3.36202 10.7809C3.41005 10.8488 3.47367 10.9042 3.54754 10.9424C3.6214 10.9806 3.70335 11.0006 3.78652 11.0006C3.86969 11.0006 3.95164 10.9806 4.0255 10.9424C4.09937 10.9042 4.16299 10.8488 4.21102 10.7809L11.824 1.28091C11.9385 1.12775 12.0004 0.941646 12.0004 0.750412C12.0004 0.559178 11.9385 0.373082 11.824 0.219917Z" fill="#08A6E4"/>
</svg>
