<svg width="24" height="24" viewBox="0 0 24 24" fill="none" xmlns="http://www.w3.org/2000/svg">
<path d="M12 24C18.6274 24 24 18.6274 24 12C24 5.37258 18.6274 0 12 0C5.37258 0 0 5.37258 0 12C0 18.6274 5.37258 24 12 24Z" fill="#3B5998"/>
<path d="M15.088 12.4801H12.902V20.2381H9.59099V12.4801H8.01599V9.75411H9.59099V7.98911C9.56174 7.54744 9.62897 7.1047 9.78802 6.69163C9.94706 6.27856 10.1941 5.90505 10.512 5.59705C10.8299 5.28905 11.211 5.05393 11.6289 4.90802C12.0468 4.76211 12.4915 4.70891 12.932 4.75211L15.385 4.76211V7.40911H13.605C13.5078 7.40311 13.4104 7.41859 13.3198 7.45443C13.2292 7.49028 13.1476 7.54562 13.0808 7.61652C13.014 7.68743 12.9636 7.77217 12.9333 7.86473C12.9029 7.95729 12.8932 8.0554 12.905 8.15211V9.75211H15.38L15.088 12.4801Z" fill="white"/>
</svg>
