<svg width="67" height="37" viewBox="0 0 67 37" fill="none" xmlns="http://www.w3.org/2000/svg">
<path d="M63.996 18.5C63.996 18.5 51.175 35 33.496 35C15.817 35 2.99603 18.5 2.99603 18.5C2.99603 18.5 15.817 2 33.496 2C51.175 2 63.996 18.5 63.996 18.5Z" stroke="black" stroke-width="3.5" stroke-miterlimit="10"/>
<path d="M33.496 30.995C40.3996 30.995 45.996 25.3986 45.996 18.495C45.996 11.5914 40.3996 5.995 33.496 5.995C26.5925 5.995 20.996 11.5914 20.996 18.495C20.996 25.3986 26.5925 30.995 33.496 30.995Z" stroke="black" stroke-width="3.5" stroke-miterlimit="10"/>
<path d="M35.504 22.21C34.6582 22.7377 33.6612 22.9696 32.6693 22.8693C31.6775 22.769 30.7471 22.3423 30.024 21.656C29.301 20.9697 28.8263 20.0627 28.6745 19.0774C28.5227 18.0922 28.7023 17.0844 29.1853 16.2123C29.6682 15.3402 30.427 14.6531 31.3426 14.2589C32.2583 13.8647 33.2789 13.7857 34.2443 14.0343C35.2097 14.283 36.0652 14.8451 36.6765 15.6325C37.2879 16.42 37.6204 17.3881 37.622 18.385V18.512" stroke="black" stroke-width="3.5" stroke-miterlimit="10" stroke-linecap="round"/>
</svg>
