<svg width="27" height="27" viewBox="0 0 27 27" fill="none" xmlns="http://www.w3.org/2000/svg">
<path d="M21.8 4H4.2C3.61163 4.00896 3.05081 4.25083 2.64048 4.67259C2.23015 5.09436 2.00378 5.66161 2.011 6.25L2 19.75C1.99518 20.3396 2.22384 20.9071 2.63603 21.3287C3.04822 21.7502 3.61047 21.9916 4.2 22H21.8C22.3895 21.9916 22.9518 21.7502 23.364 21.3287C23.7762 20.9071 24.0048 20.3396 24 19.75V6.25C24.0048 5.66043 23.7762 5.0929 23.364 4.67134C22.9518 4.24978 22.3895 4.00843 21.8 4ZM21.8 19.75H4.2V8.5L13 14.125L21.8 8.5V19.75ZM13 11.875L4.2 6.25H21.8L13 11.875Z" fill="#08A6E4"/>
</svg>
