<svg width="24" height="24" viewBox="0 0 24 24" fill="none" xmlns="http://www.w3.org/2000/svg">
<g clip-path="url(#clip0_3_381)">
<path d="M12 24C18.6274 24 24 18.6274 24 12C24 5.37258 18.6274 0 12 0C5.37258 0 0 5.37258 0 12C0 18.6274 5.37258 24 12 24Z" fill="#55ACEE"/>
<path d="M18.9969 8.07207C18.4727 8.30444 17.9165 8.45681 17.3469 8.52407C17.9468 8.16523 18.3957 7.60046 18.6099 6.93507C18.0463 7.27074 17.4294 7.50749 16.7859 7.63507C16.3523 7.17799 15.7806 6.87601 15.1586 6.77555C14.5366 6.6751 13.8989 6.78173 13.3434 7.07906C12.7879 7.37639 12.3455 7.84795 12.0842 8.42123C11.8229 8.99451 11.7571 9.63776 11.8969 10.2521C10.755 10.1951 9.63778 9.89855 8.61788 9.38171C7.59797 8.86486 6.69819 8.13928 5.97695 7.25207C5.60953 7.88446 5.49695 8.63311 5.66211 9.3456C5.82727 10.0581 6.25777 10.6808 6.86595 11.0871C6.41006 11.0727 5.96426 10.9493 5.56595 10.7271C5.56595 10.7391 5.56595 10.7511 5.56595 10.7631C5.56597 11.4256 5.79492 12.0678 6.21405 12.581C6.63317 13.0942 7.21673 13.4467 7.86595 13.5791C7.44208 13.6946 6.99743 13.7117 6.56595 13.6291C6.74934 14.1998 7.10656 14.699 7.58763 15.0567C8.0687 15.4144 8.64956 15.6128 9.24895 15.6241C8.04364 16.5651 6.51547 16.9921 4.99695 16.8121C6.23148 17.6032 7.65622 18.0474 9.12161 18.0981C10.587 18.1488 12.039 17.8041 13.3253 17.1001C14.6115 16.3962 15.6846 15.359 16.4318 14.0974C17.179 12.8358 17.5728 11.3963 17.5719 9.93007C17.5719 9.80607 17.5719 9.68207 17.5639 9.55907C18.1264 9.15272 18.6117 8.64914 18.9969 8.07207Z" fill="#F1F2F2"/>
</g>
<defs>
<clipPath id="clip0_3_381">
<rect width="24" height="24" fill="white"/>
</clipPath>
</defs>
</svg>
